<?xml version="1.0" encoding="utf-8"?>
<!-- Generator: Adobe Illustrator 18.0.0, SVG Export Plug-In . SVG Version: 6.00 Build 0)  -->
<!DOCTYPE svg PUBLIC "-//W3C//DTD SVG 1.1//EN" "http://www.w3.org/Graphics/SVG/1.1/DTD/svg11.dtd">
<svg version="1.1" id="Layer_1" xmlns="http://www.w3.org/2000/svg" xmlns:xlink="http://www.w3.org/1999/xlink" x="0px" y="0px"
	 viewBox="18.7 4.3 65.2 51.6" enable-background="new 18.7 4.3 65.2 51.6" xml:space="preserve">
<g>
	<path fill="#FFFFFF" d="M51.3,5.5c-18,0-32.6,16.3-32.6,36.4v0h1.5v0c0-13,6.3-24.2,15.7-30.2c0.4,0.2,0.8,0.4,1.2,0.6
		c4.3-2.4,9.1-3.7,14.2-3.7c5.1,0,9.9,1.3,14.1,3.6c0.4-0.2,0.8-0.4,1.2-0.6c9.4,6,15.8,17.3,15.8,30.3v0h1.5v0
		C83.9,21.8,69.3,5.5,51.3,5.5z"/>
	<circle fill="#FFFFFF" cx="19.4" cy="43.4" r="0.7"/>
	<circle fill="#FFFFFF" cx="83.1" cy="43.4" r="0.7"/>
	<path fill="#FFFFFF" d="M20.9,41.8v3.1c0,0.3,0.3,0.6,0.7,0.6h0.8v-4.4h-0.8C21.2,41.1,20.9,41.5,20.9,41.8z"/>
	<path fill="#FFFFFF" d="M25.4,36.7c-1.5,0.1-2.2,0.7-2.2,1.6v10.1c0,0.9,0.7,1.5,2.2,1.6V36.7z"/>
	<path fill="#FFFFFF" d="M25.4,34.1v1.1h0.7v16.3h-0.7v1.2c0,1.8,1.5,3.3,4.4,3.3V30.8C26.9,30.8,25.4,32.3,25.4,34.1z"/>
	<path fill="#FFFFFF" d="M31.9,30.7h-1.3v25.2h1.3c0.8,0,1.6-0.6,1.6-1.4V32.3C33.5,31.5,32.7,30.7,31.9,30.7z"/>
	<path fill="#FFFFFF" d="M80.6,41.1h-0.5v4.4h0.5c0.4,0,1-0.3,1-0.6v-3.1C81.7,41.5,81,41.1,80.6,41.1z"/>
	<path fill="#FFFFFF" d="M77.2,36.7V50c0.7-0.1,2.2-0.7,2.2-1.6V38.3C79.4,37.4,78,36.9,77.2,36.7z"/>
	<path fill="#FFFFFF" d="M76.5,35.2h0.7v-1.1c0-1.8-2.2-3.3-4.4-3.3V56c2.2,0,4.4-1.5,4.4-3.3v-1.2h-0.7V35.2z"/>
	<path fill="#FFFFFF" d="M69.1,32.3v22.2c0,0.8,0.5,1.4,1.3,1.4H72V30.7h-1.6C69.6,30.7,69.1,31.5,69.1,32.3z"/>
</g>
</svg>
